<svg width="32" height="29" viewBox="0 0 32 29" fill="none" xmlns="http://www.w3.org/2000/svg">
<path d="M32 3.41176C30.8222 4.00882 29.5526 4.40118 28.2371 4.58882C29.5832 3.68471 30.6233 2.25176 31.1128 0.528823C29.8432 1.38176 28.4359 1.97882 26.9522 2.32C25.7438 0.852941 24.0459 0 22.1185 0C18.5239 0 15.587 3.27529 15.587 7.31823C15.587 7.89823 15.6482 8.46118 15.7553 8.99C10.3098 8.68294 5.4608 5.76588 2.23327 1.34765C1.6673 2.42235 1.34608 3.68471 1.34608 5.01529C1.34608 7.55706 2.49331 9.80882 4.26769 11.0882C3.18164 11.0882 2.17208 10.7471 1.2849 10.2353C1.2849 10.2353 1.2849 10.2353 1.2849 10.2865C1.2849 13.8347 3.54876 16.8029 6.54685 17.4682C5.99618 17.6388 5.41491 17.7241 4.81836 17.7241C4.40535 17.7241 3.99235 17.6729 3.59465 17.5876C4.42065 20.4706 6.82218 22.62 9.71319 22.6712C7.47992 24.65 4.6501 25.81 1.56023 25.81C1.04015 25.81 0.520077 25.7759 0 25.7076C2.90631 27.7888 6.36329 29 10.065 29C22.1185 29 28.7419 17.8435 28.7419 8.17118C28.7419 7.84706 28.7419 7.54 28.7266 7.21588C30.0115 6.19235 31.1128 4.89588 32 3.41176Z" fill="#9CA3AF"/>
</svg>
