<svg width="30" height="23" viewBox="0 0 30 23" fill="none" xmlns="http://www.w3.org/2000/svg">
<path d="M12 16.3683L19.785 11.4578L12 6.54731V16.3683ZM29.34 3.55191C29.535 4.32122 29.67 5.35242 29.76 6.66188C29.865 7.97135 29.91 9.10076 29.91 10.0829L30 11.4578C30 15.0424 29.76 17.6777 29.34 19.3637C28.965 20.8368 28.095 21.7862 26.745 22.1954C26.04 22.4082 24.75 22.5555 22.77 22.6537C20.82 22.7683 19.035 22.8174 17.385 22.8174L15 22.9156C8.715 22.9156 4.8 22.6537 3.255 22.1954C1.905 21.7862 1.035 20.8368 0.66 19.3637C0.465 18.5944 0.33 17.5632 0.24 16.2537C0.135 14.9442 0.0899999 13.8148 0.0899999 12.8327L0 11.4578C0 7.87314 0.24 5.23785 0.66 3.55191C1.035 2.07877 1.905 1.12941 3.255 0.720204C3.96 0.507416 5.25 0.360102 7.23 0.261892C9.18 0.147314 10.965 0.0982095 12.615 0.0982095L15 0C21.285 0 25.2 0.261892 26.745 0.720204C28.095 1.12941 28.965 2.07877 29.34 3.55191Z" fill="#9CA3AF"/>
</svg>
